<svg width="28" height="22" viewBox="0 0 28 22" fill="none" xmlns="http://www.w3.org/2000/svg">
<path fill-rule="evenodd" clip-rule="evenodd" d="M26.7516 16.9954L16.496 1.61543C15.3085 -0.165435 12.6916 -0.165424 11.5041 1.61543L1.24844 16.9954C-0.0809461 18.9891 1.3482 21.6598 3.74443 21.6598H24.2556C26.6519 21.6598 28.081 18.9891 26.7516 16.9954ZM13.168 2.725C13.5639 2.13138 14.4362 2.13138 14.832 2.725L25.0876 18.105C25.5308 18.7695 25.0544 19.6598 24.2556 19.6598H3.74443C2.94568 19.6598 2.4693 18.7695 2.91243 18.105L13.168 2.725ZM10.5 13.0231C10.5 11.1569 12.2289 9.64379 14.3621 9.64379C16.4953 9.64379 18.2242 11.1569 18.2242 13.0231C18.2242 14.0806 17.6675 15.0235 16.7985 15.6436C16.6522 15.7477 16.5692 15.9181 16.5949 16.0947L16.7367 17.0934C16.7578 17.2382 16.6462 17.3679 16.4998 17.3679H15.3276V16.5231C15.3276 16.4567 15.2733 16.4024 15.2069 16.4024H14.9656C14.8992 16.4024 14.8449 16.4567 14.8449 16.5231V17.3679H13.8793V16.5231C13.8793 16.4567 13.825 16.4024 13.7587 16.4024H13.5173C13.4509 16.4024 13.3966 16.4567 13.3966 16.5231V17.3679H12.2244C12.0781 17.3679 11.9664 17.2382 11.9875 17.0934L12.1293 16.0947C12.155 15.9166 12.0705 15.7477 11.9257 15.6436C11.0567 15.0235 10.5 14.0806 10.5 13.0231ZM11.9483 13.5059C11.9483 14.0384 12.3813 14.4714 12.9138 14.4714C13.4464 14.4714 13.8793 14.0384 13.8793 13.5059C13.8793 12.9733 13.4464 12.5403 12.9138 12.5403C12.3813 12.5403 11.9483 12.9733 11.9483 13.5059ZM14.8449 13.5059C14.8449 14.0384 15.2778 14.4714 15.8104 14.4714C16.3429 14.4714 16.7759 14.0384 16.7759 13.5059C16.7759 12.9733 16.3429 12.5403 15.8104 12.5403C15.2778 12.5403 14.8449 12.9733 14.8449 13.5059Z" fill="#FAEC3D"/>
</svg>
