<svg xmlns="http://www.w3.org/2000/svg" xmlns:xlink="http://www.w3.org/1999/xlink" viewBox="0,0,255.99544,255.99544" width="32px" height="32px" fill-rule="nonzero"><g fill="#58d65d" fill-rule="nonzero" stroke="none" stroke-width="1" stroke-linecap="butt" stroke-linejoin="miter" stroke-miterlimit="10" stroke-dasharray="" stroke-dashoffset="0" font-family="none" font-weight="none" font-size="none" text-anchor="none" style="mix-blend-mode: normal"><g transform="scale(10.66667,10.66667)"><path d="M11.03125,3c-1.14472,0 -2.20927,0.60909 -2.75,1.61523l-0.00781,0.01367l-0.46094,0.92383c-0.1778,0.32126 -0.16526,0.71412 0.03267,1.02339c0.19793,0.30927 0.54942,0.4852 0.91561,0.45831c0.3662,-0.0269 0.68821,-0.2523 0.83883,-0.58716l0.44336,-0.88477h0.00195c0.17756,-0.32908 0.5537,-0.5625 0.98633,-0.5625h1.98828c0.43388,0 0.81242,0.2321 0.99024,0.56445l0.00976,0.01758l1.5918,2.70898l-1.35937,0.77539c-0.387,0.221 -0.31476,0.79802 0.11524,0.91602l3.65039,1c0.266,0.073 0.54028,-0.08361 0.61328,-0.34961l1,-3.65039c0.118,-0.43 -0.34347,-0.78641 -0.73047,-0.56641l-1.55078,0.88477l-1.57617,-2.67969c-0.54018,-1.00965 -1.60779,-1.62109 -2.75391,-1.62109zM6.82031,9.00586l-3.73437,0.59961c-0.44,0.071 -0.57484,0.63939 -0.21484,0.90039l1.35352,0.97852l-1.83984,3.10938l-0.00977,0.01758c-0.52851,0.98475 -0.4448,2.19627 0.21094,3.10352v0.00195l0.72656,1.00195c0.5866,0.81314 1.53688,1.28125 2.54102,1.28125h2.14648c0.36064,0.0051 0.69608,-0.18438 0.87789,-0.49587c0.18181,-0.3115 0.18181,-0.69676 0,-1.00825c-0.18181,-0.3115 -0.51725,-0.50097 -0.87789,-0.49587h-2.14648c-0.37986,0 -0.72452,-0.18031 -0.91992,-0.45117l-0.72656,-1.00391c-0.22027,-0.30475 -0.24185,-0.66307 -0.06836,-0.98633l1.71094,-2.89844l1.35547,0.98047c0.361,0.261 0.85811,-0.04438 0.78711,-0.48437l-0.59961,-3.73437c-0.043,-0.273 -0.29927,-0.45902 -0.57227,-0.41602zM19.96094,12.98828c-0.37034,0.01165 -0.70389,0.22709 -0.86681,0.55988c-0.16291,0.33279 -0.12849,0.72837 0.08946,1.02801l0.70508,0.99805c0.1616,0.30839 0.13918,0.67762 -0.07227,0.97266l0.00391,-0.00195l-0.73047,1.00977c-0.191,0.26452 -0.5391,0.44531 -0.91992,0.44531h-3.16992v-1.49023c0,-0.453 -0.54814,-0.68037 -0.86914,-0.35937l-2.49023,2.49023c-0.199,0.199 -0.199,0.51975 0,0.71875l2.49023,2.49023c0.321,0.321 0.86914,0.09362 0.86914,-0.35937v-1.49023h3.16992c0.99918,0 1.95202,-0.45987 2.54102,-1.27539l0.73047,-1.00977l0.00195,-0.00195c0.64644,-0.90202 0.74,-2.10785 0.20703,-3.09766l-0.0293,-0.05273l-0.80469,-1.13867c-0.19229,-0.28149 -0.51472,-0.44565 -0.85547,-0.43555z"></path></g></g></svg>