<svg width="24" height="23" viewBox="0 0 24 23" fill="none" xmlns="http://www.w3.org/2000/svg">
<path fill-rule="evenodd" clip-rule="evenodd" d="M7.29369 1.88444C7.92454 0.710608 9.16651 0 10.502 0H12.8217C14.1588 0 15.4044 0.713354 16.0346 1.89128L16.8027 3.19726L19.799 0.20101L22.6274 3.02944L20.3554 5.30147L19.3682 8.90495C19.2831 9.21528 18.9631 9.39799 18.6527 9.31283L16.8405 8.81637L7.81116 17.8457C7.9166 17.9522 8.00058 18.078 8.05845 18.2164C8.11812 18.359 8.14885 18.5121 8.14885 18.6667C8.14885 18.8213 8.11812 18.9744 8.05845 19.117C7.99878 19.2596 7.91135 19.389 7.80125 19.4975C7.69115 19.6061 7.56058 19.6917 7.41712 19.7493C7.27365 19.807 7.12016 19.8355 6.96557 19.8333H5.82352L2.82843 22.8284L0 20L1.56721 18.4328C1.54328 18.4018 1.51981 18.3704 1.49682 18.3385L0.649161 17.1696V17.1673C-0.115861 16.1089 -0.213528 14.6954 0.403067 13.5466L0.41446 13.526L2.56094 9.89844L0.981843 8.75684C0.561843 8.45234 0.719161 7.78921 1.23249 7.70638L5.58926 7.00684C5.90776 6.95667 6.20674 7.17369 6.25691 7.49219L6.95645 11.849C7.03929 12.3623 6.45932 12.7186 6.03816 12.4141L4.45678 11.2702L2.46068 14.6517C2.25828 15.0288 2.28346 15.4469 2.54044 15.8024L3.23622 16.7638L15.0984 4.90156L13.9884 3.01237L13.977 2.99186C13.7695 2.60412 13.3279 2.33333 12.8217 2.33333H10.502C9.99729 2.33333 9.55847 2.60566 9.35131 2.98958H9.34903L8.83178 4.02181C8.76726 4.16526 8.6744 4.29418 8.55878 4.40082C8.44317 4.50747 8.30718 4.58964 8.159 4.64239C8.01082 4.69514 7.85351 4.71739 7.69651 4.7078C7.53951 4.6982 7.38608 4.65696 7.24542 4.58656C7.10477 4.51616 6.9798 4.41804 6.87803 4.29811C6.77627 4.17818 6.6998 4.03891 6.65322 3.88868C6.60665 3.73844 6.59093 3.58034 6.60701 3.42387C6.6231 3.26741 6.67065 3.11581 6.74682 2.97819L7.28458 1.90039L7.29369 1.88444ZM20.3236 11.8391C20.5018 11.724 20.708 11.6597 20.92 11.653C21.1156 11.6472 21.3096 11.6907 21.484 11.7795C21.6584 11.8683 21.8076 11.9995 21.918 12.1611L22.8568 13.4896L22.891 13.5511C23.5128 14.7059 23.4037 16.1127 22.6495 17.165L22.6472 17.1673L21.795 18.3454C21.1078 19.2968 19.9962 19.8333 18.8305 19.8333H15.1322V21.5719C15.1322 22.1004 14.4927 22.3657 14.1182 21.9912L11.213 19.0859C10.9808 18.8538 10.9808 18.4796 11.213 18.2474L14.1182 15.3421C14.4927 14.9676 15.1322 15.2329 15.1322 15.7614V17.5H18.8305C19.2748 17.5 19.6809 17.2891 19.9037 16.9805L20.7559 15.8024L20.7514 15.8047C20.9981 15.4605 21.0242 15.0297 20.8357 14.6699L20.0131 13.5055C19.8883 13.334 19.8127 13.1317 19.7943 12.9204C19.7759 12.709 19.8155 12.4967 19.9087 12.3062C20.002 12.1157 20.1454 11.9542 20.3236 11.8391Z" fill="#F15B5B"/>
</svg>
